<?xml version="1.0" encoding="UTF-8" standalone="no"?>
<!DOCTYPE svg PUBLIC "-//W3C//DTD SVG 1.1//EN" "http://www.w3.org/Graphics/SVG/1.1/DTD/svg11.dtd">
<svg width="100%" height="100%" viewBox="0 0 24 24" version="1.1" xmlns="http://www.w3.org/2000/svg" xmlns:xlink="http://www.w3.org/1999/xlink" xml:space="preserve" xmlns:serif="http://www.serif.com/" style="fill-rule:evenodd;clip-rule:evenodd;stroke-linecap:round;stroke-linejoin:round;">
    <rect x="0" y="0" width="24" height="24" style="fill:none;fill-rule:nonzero;"/>
    <path d="M19,5C19,3.896 18.104,3 17,3L7,3C5.896,3 5,3.896 5,5L5,19C5,20.104 5.896,21 7,21L17,21C18.104,21 19,20.104 19,19L19,5Z" style="fill:none;stroke:rgb(0,31,63);stroke-width:2px;"/>
    <g transform="matrix(0.707441,0.706772,-0.706772,0.707441,8.89757,-0.993012)">
        <path d="M7.756,6.998L15,7" style="fill:none;fill-rule:nonzero;stroke:rgb(0,31,63);stroke-width:2px;"/>
    </g>
    <g transform="matrix(0.707852,-0.707852,0.707107,0.707107,-4.71062,13.1532)">
        <path d="M9,11L16.237,11.002" style="fill:none;fill-rule:nonzero;stroke:rgb(0,31,63);stroke-width:2px;"/>
    </g>
</svg>
